<svg xmlns="http://www.w3.org/2000/svg" viewBox="0 0 64 64" fill="none" role="img" aria-label="Asisten SILP DLH Kota Palu">
  <defs>
    <linearGradient id="botBg" x1="8" y1="6" x2="56" y2="58" gradientUnits="userSpaceOnUse">
      <stop stop-color="#10b981"/>
      <stop offset="1" stop-color="#047857"/>
    </linearGradient>
    <linearGradient id="botLeaf" x1="24" y1="20" x2="44" y2="46" gradientUnits="userSpaceOnUse">
      <stop stop-color="#a7f3d0"/>
      <stop offset="1" stop-color="#6ee7b7"/>
    </linearGradient>
  </defs>
  <!-- Rounded speech bubble -->
  <path d="M14 6h36a10 10 0 0 1 10 10v22a10 10 0 0 1-10 10H30l-12 10v-10h-4A10 10 0 0 1 4 38V16A10 10 0 0 1 14 6z" fill="url(#botBg)"/>
  <!-- Eyes -->
  <circle cx="24" cy="27" r="3.6" fill="#ffffff"/>
  <circle cx="40" cy="27" r="3.6" fill="#ffffff"/>
  <!-- Smile -->
  <path d="M23 36c2.6 3.4 6 5 9 5s6.4-1.6 9-5" stroke="#ffffff" stroke-width="2.6" stroke-linecap="round"/>
  <!-- Leaf sprout (environmental identity) -->
  <path d="M32 6c0-3 1.6-4.8 4.4-5.6C36 3 34.4 5 32 6z" fill="url(#botLeaf)"/>
  <path d="M32 6c0-3-1.6-4.8-4.4-5.6C28 3 29.6 5 32 6z" fill="url(#botLeaf)"/>
</svg>
